# xmcd
#
# Track frame offsets:
#	151
#	38005
#	86747
#	109590
#	121557
#	144793
#	176670
#	202146
#
# Disc length: 3203 seconds
#
# Revision: 1
# Processed by: cddbd v1.4PL0 Copyright (c) Steve Scherf et al.
# Submitted via: audiograbber 1.82.01
#
DISCID=610c8108
DTITLE=Majida El Roumy - Ouhibouka W Ba3ed
DYEAR=1900
DGENRE=
TTITLE0=Ouhibouka W Ba3ed
TTITLE1=Tawk El Yasmin
TTITLE2=El Kalb El Maftouh
TTITLE3=El Yawm 3ad Habibi
TTITLE4=Enta El Madi
TTITLE5=Ana Lamma Bouwerd
TTITLE6=Yakoul Enni Emra2a
TTITLE7=Sayidi El Ra2is
EXTD=
EXTT0=
EXTT1=
EXTT2=
EXTT3=
EXTT4=
EXTT5=
EXTT6=
EXTT7=
PLAYORDER=
